<?xml version="1.0" standalone="no"?><!DOCTYPE svg PUBLIC "-//W3C//DTD SVG 1.1//EN" "http://www.w3.org/Graphics/SVG/1.1/DTD/svg11.dtd"><svg t="1590478868853" class="icon" viewBox="0 0 1025 1024" version="1.1" xmlns="http://www.w3.org/2000/svg" p-id="2445" xmlns:xlink="http://www.w3.org/1999/xlink" width="128.125" height="128"><defs><style type="text/css"></style></defs><path d="M260.88 315.92c-4.1 10.6-6.3 22.1-6.3 34.1 0 52.7 42.7 95.4 95.4 95.4s95.4-42.7 95.4-95.4-42.7-95.4-95.4-95.4c-12 0-23.5 2.2-34.1 6.3L174.18 119.22c-15.2-15.2-39.8-15.2-55 0-15.2 15.2-15.2 39.8 0 55L260.88 315.92zM983.58 473.12 550.88 40.42c-53.8-53.8-141.4-53.8-195.2 0l-55.3 55.3 0.4 0.4c-5.6 6.4-9 14.8-9 24 0 20.3 16.4 36.7 36.7 36.7 9.2 0 17.6-3.4 24-9l0.2 0.2 55.3-55.3c25-25 65.7-24.8 90.5 0l432.7 432.7c25 25 24.8 65.7 0 90.5L615.98 931.22c-25 25-65.7 24.9-90.5 0L92.78 498.52c-25-25-24.8-65.7 0-90.5l55.3-55.3-0.2-0.2c5.6-6.4 9-14.8 9-24 0-20.3-16.4-36.7-36.7-36.7-9.2 0-17.6 3.4-24 9l-0.4-0.4-55.3 55.3c-53.8 53.8-53.8 141.4 0 195.2l432.7 432.7c53.8 53.8 141.4 53.8 195.2 0L983.58 668.32C1037.48 614.52 1037.48 526.92 983.58 473.12z" p-id="2446"></path></svg>