<?xml version="1.0" standalone="no"?><!DOCTYPE svg PUBLIC "-//W3C//DTD SVG 1.1//EN" "http://www.w3.org/Graphics/SVG/1.1/DTD/svg11.dtd"><svg t="1588584062566" class="icon" viewBox="0 0 1024 1024" version="1.1" xmlns="http://www.w3.org/2000/svg" p-id="3797" xmlns:xlink="http://www.w3.org/1999/xlink" width="128" height="128"><defs><style type="text/css"></style></defs><path d="M141.2 894V115.3h-39V933h817.7v-39z" p-id="3798"></path><path d="M227.4 855.1h61.1c15.4 0 27.9-12.5 27.9-27.9V668.8c0-15.4-12.5-27.9-27.9-27.9h-61.1c-15.4 0-27.9 12.5-27.9 27.9v158.4c0 15.4 12.5 27.9 27.9 27.9z m11.1-175.2h38.9v136.3h-38.9V679.9zM409.1 543.6c-15.4 0-27.9 12.5-27.9 27.9v255.8c0 15.4 12.5 27.9 27.9 27.9h61.1c15.4 0 27.9-12.5 27.9-27.9V571.5c0-15.4-12.5-27.9-27.9-27.9h-61.1z m50.1 272.5h-38.9V582.5h38.9v233.6zM590.8 446.2c-15.4 0-27.9 12.5-27.9 27.9v353.1c0 15.4 12.5 27.9 27.9 27.9h61.1c15.4 0 27.9-12.5 27.9-27.9V474.1c0-15.4-12.5-27.9-27.9-27.9h-61.1z m50.1 370H602v-331h38.9v331zM744.7 376.8v450.5c0 15.4 12.5 27.9 27.9 27.9h61.1c15.4 0 27.9-12.5 27.9-27.9V376.8c-0.1-15.4-12.5-27.9-27.9-27.9h-61.1c-15.4 0-27.9 12.5-27.9 27.9z m39 11h38.9v428.3h-38.9V387.8zM219 563.1c3.8 0 7.7-1.1 11-3.4l249.3-171.8h123.6c8.9 0 17.5-3.8 23.7-10.4l157.1-171.4V271c0 10.8 8.7 19.5 19.5 19.5s19.5-8.7 19.5-19.5V134.7H686.3c-10.8 0-19.5 8.7-19.5 19.5s8.7 19.5 19.5 19.5h74.2L599.9 348.9H477c-7.5 0-14.6 2.6-20.3 7.2L208 527.6c-8.9 6.1-11.1 18.2-5 27.1 3.7 5.4 9.8 8.4 16 8.4z" p-id="3799"></path></svg>