<?xml version="1.0" standalone="no"?><!DOCTYPE svg PUBLIC "-//W3C//DTD SVG 1.1//EN" "http://www.w3.org/Graphics/SVG/1.1/DTD/svg11.dtd"><svg t="1590479889532" class="icon" viewBox="0 0 1024 1024" version="1.1" xmlns="http://www.w3.org/2000/svg" p-id="7949" xmlns:xlink="http://www.w3.org/1999/xlink" width="128" height="128"><defs><style type="text/css"></style></defs><path d="M315.08 551.42 157.58 551.42c-86.6 0-157.5 70.9-157.5 157.5l0 157.5c0 86.6 70.9 157.5 157.5 157.5l157.5 0c86.6 0 157.5-70.9 157.5-157.5L472.58 708.92C472.58 622.32 401.68 551.42 315.08 551.42zM393.88 866.42c0 43.3-35.4 78.8-78.8 78.8L157.58 945.22c-43.3 0-78.8-35.4-78.8-78.8L78.78 708.92c0-43.3 35.4-78.8 78.8-78.8l157.5 0c43.3 0 78.8 35.4 78.8 78.8L393.88 866.42zM866.48 0.02 708.88 0.02c-86.6 0-157.5 70.9-157.5 157.5l0 157.5c0 86.6 70.9 157.5 157.5 157.5l157.5 0c86.6 0 157.5-70.9 157.5-157.5L1023.88 157.52C1023.98 70.92 953.08 0.02 866.48 0.02zM945.28 315.12c0 43.3-35.4 78.8-78.8 78.8L708.88 393.92c-43.3 0-78.8-35.4-78.8-78.8L630.08 157.52c0-43.3 35.4-78.8 78.8-78.8l157.5 0c43.3 0 78.8 35.4 78.8 78.8L945.18 315.12zM866.48 551.42 708.88 551.42c-86.6 0-157.5 70.9-157.5 157.5l0 157.5c0 86.6 70.9 157.5 157.5 157.5l157.5 0c86.6 0 157.5-70.9 157.5-157.5L1023.88 708.92C1023.98 622.32 953.08 551.42 866.48 551.42zM945.28 866.42c0 43.3-35.4 78.8-78.8 78.8L708.88 945.22c-43.3 0-78.8-35.4-78.8-78.8L630.08 708.92c0-43.3 35.4-78.8 78.8-78.8l157.5 0c43.3 0 78.8 35.4 78.8 78.8L945.18 866.42zM315.08 0.02 157.58 0.02c-86.6 0-157.5 70.9-157.5 157.5l0 157.5c0 86.6 70.9 157.5 157.5 157.5l157.5 0c86.6 0 157.5-70.9 157.5-157.5L472.58 157.52C472.58 70.92 401.68 0.02 315.08 0.02zM393.88 315.12c0 43.3-35.4 78.8-78.8 78.8L157.58 393.92c-43.3 0-78.8-35.4-78.8-78.8L78.78 157.52c0-43.3 35.4-78.8 78.8-78.8l157.5 0c43.3 0 78.8 35.4 78.8 78.8L393.88 315.12z" fill="#515151" p-id="7950"></path></svg>