<?xml version="1.0" standalone="no"?><!DOCTYPE svg PUBLIC "-//W3C//DTD SVG 1.1//EN" "http://www.w3.org/Graphics/SVG/1.1/DTD/svg11.dtd"><svg t="1590479128099" class="icon" viewBox="0 0 1024 1024" version="1.1" xmlns="http://www.w3.org/2000/svg" p-id="5656" xmlns:xlink="http://www.w3.org/1999/xlink" width="128" height="128"><defs><style type="text/css"></style></defs><path d="M915.47070313 719.63017578a22.5 22.5 0 0 1 19.25947265 40.68017578l-415.30517578 196.78447266a22.5 22.5 0 0 1-19.26035156 0L84.81464844 760.31035156a22.5 22.5 0 0 1 19.30517578-40.68017578l405.675 192.23964844L915.47070313 719.63017578z m-1e-8-146.11552734a22.5 22.5 0 1 1 19.25947266 40.68017578L519.425 810.93535156a22.5 22.5 0 0 1-19.26035156 0L84.81464844 614.19482422a22.5 22.5 0 1 1 19.30517578-40.68017578l405.675 192.15L915.47070313 573.51464844z m0-146.15947266a22.5 22.5 0 0 1 19.25947266 40.68017578L519.425 664.81982422a22.5 22.5 0 0 1-19.26035156 0L84.81464844 468.03535156a22.5 22.5 0 0 1 19.30517578-40.68017578l405.675 192.23964844L915.47070313 427.35517578z m-42.93105468-126.36035156L509.79482422 129.18535156 147.05 300.95 509.75 472.85l362.78964844-171.9z m62.19052734 20.34052734L519.425 518.11982422a22.5 22.5 0 0 1-19.26035156 0L84.81464844 321.33535156a22.5 22.5 0 0 1 0-40.63535156L500.21035156 83.96035156a22.5 22.5 0 0 1 19.25947266 0l415.30517578 196.73964844a22.5 22.5 0 0 1 0 40.63535156z" p-id="5657"></path></svg>