<?xml version="1.0" standalone="no"?><!DOCTYPE svg PUBLIC "-//W3C//DTD SVG 1.1//EN" "http://www.w3.org/Graphics/SVG/1.1/DTD/svg11.dtd"><svg t="1590479746222" class="icon" viewBox="0 0 1024 1024" version="1.1" xmlns="http://www.w3.org/2000/svg" p-id="6940" xmlns:xlink="http://www.w3.org/1999/xlink" width="128" height="128"><defs><style type="text/css"></style></defs><path d="M668.4672 307.5584a33.3824 33.3824 0 1 0-48.0256-46.08L513.8432 373.248l-113.0496-112.64a33.7408 33.7408 0 0 0-48.0256 47.616l124.3136 124.2624v6.2464H377.4976a33.6384 33.6384 0 1 0 0 67.072h99.3792v66.9696H377.6a33.536 33.536 0 0 0 0 67.072h99.3792v99.6864a33.536 33.536 0 0 0 67.072 0V640h101.9392a33.6384 33.6384 0 1 0 0-66.9696h-101.8368V505.8048h101.8368a33.6384 33.6384 0 0 0 0-67.072h-101.8368v-1.3824l124.416-129.7408z" p-id="6941"></path><path d="M512 1024A512 512 0 0 1 144.5376 155.4944 37.376 37.376 0 0 1 198.144 207.5136 437.248 437.248 0 1 0 512 74.752 37.376 37.376 0 1 1 512 0a512 512 0 0 1 0 1024z" p-id="6942"></path></svg>