<?xml version="1.0" standalone="no"?><!DOCTYPE svg PUBLIC "-//W3C//DTD SVG 1.1//EN" "http://www.w3.org/Graphics/SVG/1.1/DTD/svg11.dtd"><svg t="1590478670754" class="icon" viewBox="0 0 1024 1024" version="1.1" xmlns="http://www.w3.org/2000/svg" p-id="756" xmlns:xlink="http://www.w3.org/1999/xlink" width="128" height="128"><defs><style type="text/css"></style></defs><path d="M812.9 763.9c-13.4-205-31.2-530.5-31.2-530.5 0-17.8-17.8-26.7-31.2-26.7H291.4c4.5-44.6 4.5-71.3 4.5-71.3 0-13.4 13.4-26.7 26.7-26.7h575c13.4 0 26.7 8.9 26.7 26.7 0 0 35.7 601.8 35.7 606.2 0 17.8-13.4 26.8-26.7 26.8H812.9v-4.5z" p-id="757"></path><path d="M732.7 282.4s35.7 601.8 35.7 606.2c0 17.8-13.4 26.7-26.8 26.7H90.8C72.9 915.4 64 902 64 888.7l35.7-601.8c0-13.4 13.4-26.8 26.7-26.8h575c17.9-4.4 26.8 9 31.3 22.3zM237.9 411.7c0 115.9 62.4 178.3 178.3 178.3s178.3-62.4 178.3-178.3c0-26.8-17.8-44.6-44.6-44.6s-44.6 17.8-44.6 44.6c0 62.4-26.7 89.2-89.2 89.2-62.4 0-89.2-26.8-89.2-89.2 0-26.8-17.8-44.6-44.6-44.6-26.6 0-44.4 17.9-44.4 44.6" p-id="758"></path></svg>